<svg width="18" height="20" viewBox="0 0 18 20" fill="none" xmlns="http://www.w3.org/2000/svg">
<path d="M1.45549 11.88L0.693404 11.2326L0.693404 11.2326L1.45549 11.88ZM2.33476 9.8385L1.34111 9.72594L2.33476 9.8385ZM15.6652 9.8385L16.6589 9.72594L16.6589 9.72594L15.6652 9.8385ZM16.5445 11.88L17.3066 11.2326L17.3066 11.2326L16.5445 11.88ZM15.3204 6.79403L14.3267 6.9066L14.3267 6.9066L15.3204 6.79403ZM2.67964 6.79403L3.67328 6.9066L2.67964 6.79403ZM12.9364 17.3509C13.1302 16.8338 12.8681 16.2574 12.3509 16.0636C11.8338 15.8698 11.2574 16.1319 11.0636 16.6491L12.9364 17.3509ZM6.9364 16.6491C6.74258 16.1319 6.16622 15.8698 5.64906 16.0636C5.1319 16.2574 4.86978 16.8338 5.0636 17.3509L6.9364 16.6491ZM15.1699 14H2.83014V16H15.1699V14ZM14.3267 6.9066L14.6716 9.95106L16.6589 9.72594L16.314 6.68147L14.3267 6.9066ZM3.3284 9.95106L3.67328 6.9066L1.68599 6.68147L1.34111 9.72594L3.3284 9.95106ZM2.21758 12.5275C2.83481 11.801 3.22065 10.9023 3.3284 9.95106L1.34111 9.72594C1.27748 10.2877 1.05012 10.8127 0.693404 11.2326L2.21758 12.5275ZM14.6716 9.95106C14.7794 10.9023 15.1652 11.801 15.7824 12.5275L17.3066 11.2326C16.9499 10.8127 16.7225 10.2877 16.6589 9.72594L14.6716 9.95106ZM2.83014 14C2.17086 14 1.69832 13.1387 2.21758 12.5275L0.693404 11.2326C-0.854143 13.0541 0.350769 16 2.83014 16V14ZM15.1699 16C17.6492 16 18.8541 13.0541 17.3066 11.2326L15.7824 12.5275C16.3017 13.1387 15.8291 14 15.1699 14V16ZM16.314 6.68147C15.8852 2.89602 12.7608 0 9 0V2C11.6973 2 14.0072 4.08569 14.3267 6.9066L16.314 6.68147ZM3.67328 6.9066C3.99283 4.08569 6.30271 2 9 2V0C5.23918 0 2.11481 2.89602 1.68599 6.68147L3.67328 6.9066ZM11.0636 16.6491C10.7789 17.4088 9.98443 18 9 18V20C10.7856 20 12.3478 18.9216 12.9364 17.3509L11.0636 16.6491ZM9 18C8.01557 18 7.22113 17.4088 6.9364 16.6491L5.0636 17.3509C5.65224 18.9216 7.21437 20 9 20V18Z" fill="#555555"/>
</svg>
