<svg width="16" height="20" viewBox="0 0 16 20" fill="none" xmlns="http://www.w3.org/2000/svg">
<path d="M11 5C11 6.65685 9.65685 8 8 8V10C10.7614 10 13 7.76142 13 5H11ZM8 8C6.34315 8 5 6.65685 5 5H3C3 7.76142 5.23858 10 8 10V8ZM5 5C5 3.34315 6.34315 2 8 2V0C5.23858 0 3 2.23858 3 5H5ZM8 2C9.65685 2 11 3.34315 11 5H13C13 2.23858 10.7614 0 8 0V2ZM14 15.5C14 15.8837 13.663 16.5002 12.5025 17.0804C11.4019 17.6308 9.81141 18 8 18V20C10.0546 20 11.9641 19.5857 13.397 18.8693C14.77 18.1828 16 17.0493 16 15.5H14ZM8 18C6.18859 18 4.5981 17.6308 3.49747 17.0804C2.33702 16.5002 2 15.8837 2 15.5H0C0 17.0493 1.22998 18.1828 2.60304 18.8693C4.03591 19.5857 5.94542 20 8 20V18ZM2 15.5C2 15.1163 2.33702 14.4998 3.49747 13.9196C4.5981 13.3692 6.18859 13 8 13V11C5.94542 11 4.03591 11.4143 2.60304 12.1307C1.22998 12.8172 0 13.9507 0 15.5H2ZM8 13C9.81141 13 11.4019 13.3692 12.5025 13.9196C13.663 14.4998 14 15.1163 14 15.5H16C16 13.9507 14.77 12.8172 13.397 12.1307C11.9641 11.4143 10.0546 11 8 11V13Z" fill="#D6D6D6"/>
</svg>
