<svg width="22" height="16" viewBox="0 0 22 16" fill="none" xmlns="http://www.w3.org/2000/svg">
<path d="M19.8772 5.32111C21.3743 6.7542 21.3743 9.24579 19.8772 10.6789C17.8134 12.6545 14.6042 15 11 15C7.3958 15 4.18662 12.6545 2.12281 10.6789C0.625732 9.2458 0.625731 6.7542 2.12281 5.32111C4.18661 3.34551 7.3958 1 11 1C14.6042 1 17.8134 3.34551 19.8772 5.32111Z" stroke="#D6D6D6" stroke-width="2" stroke-linecap="round"/>
<path d="M14 8C14 9.65685 12.6568 11 11 11C9.34312 11 7.99997 9.65685 7.99997 8C7.99997 6.34315 9.34312 5 11 5C12.6568 5 14 6.34315 14 8Z" stroke="#D6D6D6" stroke-width="2" stroke-linecap="round"/>
</svg>
